<svg width="522" height="522" viewBox="0 0 522 522" fill="none" xmlns="http://www.w3.org/2000/svg">
<rect width="522" height="522" fill="#F5F5F5"/>
<path d="M136.051 251V222.562H138.961V251H136.051ZM144.605 251V231.879H147.203L147.281 234.516H147.34C148.004 233.539 148.85 232.79 149.879 232.27C150.921 231.749 152.073 231.488 153.336 231.488C155.224 231.488 156.721 232.029 157.828 233.109C158.935 234.177 159.488 235.974 159.488 238.5V251H156.676V238.578C156.676 236.911 156.311 235.727 155.582 235.023C154.853 234.307 153.824 233.949 152.496 233.949C151.35 233.949 150.335 234.268 149.449 234.906C148.577 235.531 147.9 236.352 147.418 237.367V251H144.605ZM164.039 256.918L165.66 254.73C166.233 255.29 167.014 255.798 168.004 256.254C168.993 256.723 170.139 256.957 171.441 256.957C173.056 256.957 174.371 256.43 175.387 255.375C176.402 254.32 176.91 252.699 176.91 250.512V248.539C176.324 249.359 175.536 250.03 174.547 250.551C173.57 251.059 172.385 251.312 170.992 251.312C168.609 251.312 166.721 250.414 165.328 248.617C163.935 246.82 163.238 244.529 163.238 241.742V241.117C163.238 238.331 163.935 236.033 165.328 234.223C166.721 232.4 168.635 231.488 171.07 231.488C172.398 231.488 173.583 231.768 174.625 232.328C175.68 232.888 176.467 233.578 176.988 234.398H177.047L177.125 231.879H179.723V250.512C179.723 253.428 178.967 255.648 177.457 257.172C175.947 258.695 173.928 259.457 171.402 259.457C169.892 259.457 168.499 259.216 167.223 258.734C165.96 258.253 164.898 257.647 164.039 256.918ZM166.109 241.742C166.109 243.826 166.559 245.538 167.457 246.879C168.355 248.22 169.768 248.891 171.695 248.891C172.971 248.891 174.059 248.546 174.957 247.855C175.868 247.165 176.52 246.365 176.91 245.453V237.328C176.52 236.43 175.868 235.635 174.957 234.945C174.059 234.255 172.971 233.91 171.695 233.91C169.768 233.91 168.355 234.594 167.457 235.961C166.559 237.328 166.109 239.047 166.109 241.117V241.742ZM183.707 241.742V241.117C183.707 238.227 184.469 235.883 185.992 234.086C187.529 232.289 189.553 231.391 192.066 231.391C194.592 231.391 196.526 232.224 197.867 233.891C199.208 235.557 199.879 237.868 199.879 240.824V241.957H185.348V239.633H197.047V239.359C197.047 237.875 196.65 236.579 195.855 235.473C195.074 234.353 193.837 233.793 192.145 233.793C190.283 233.793 188.883 234.483 187.945 235.863C187.008 237.23 186.539 238.982 186.539 241.117V241.742C186.539 243.878 187.034 245.635 188.023 247.016C189.026 248.396 190.504 249.086 192.457 249.086C193.733 249.086 194.82 248.826 195.719 248.305C196.63 247.771 197.353 247.107 197.887 246.312L199.723 247.895C199.163 248.793 198.271 249.62 197.047 250.375C195.836 251.117 194.312 251.488 192.477 251.488C189.664 251.488 187.496 250.596 185.973 248.812C184.462 247.016 183.707 244.659 183.707 241.742ZM203.707 251V231.879H206.305L206.383 234.516H206.441C207.105 233.539 207.952 232.79 208.98 232.27C210.022 231.749 211.174 231.488 212.438 231.488C214.326 231.488 215.823 232.029 216.93 233.109C218.036 234.177 218.59 235.974 218.59 238.5V251H215.777V238.578C215.777 236.911 215.413 235.727 214.684 235.023C213.954 234.307 212.926 233.949 211.598 233.949C210.452 233.949 209.436 234.268 208.551 234.906C207.678 235.531 207.001 236.352 206.52 237.367V251H203.707ZM231.793 259.418V231.879H234.391L234.469 234.496H234.527C235.035 233.663 235.816 232.953 236.871 232.367C237.939 231.781 239.15 231.488 240.504 231.488C242.913 231.488 244.814 232.374 246.207 234.145C247.6 235.902 248.297 238.207 248.297 241.059V241.684C248.297 244.574 247.6 246.918 246.207 248.715C244.814 250.499 242.913 251.391 240.504 251.391C239.15 251.391 237.978 251.137 236.988 250.629C236.012 250.121 235.217 249.451 234.605 248.617V259.418H231.793ZM234.605 245.531C235.009 246.43 235.66 247.23 236.559 247.934C237.457 248.637 238.551 248.988 239.84 248.988C241.754 248.988 243.16 248.292 244.059 246.898C244.957 245.505 245.406 243.767 245.406 241.684V241.059C245.406 238.975 244.957 237.263 244.059 235.922C243.16 234.581 241.754 233.91 239.84 233.91C238.564 233.91 237.47 234.262 236.559 234.965C235.66 235.655 235.009 236.449 234.605 237.348V245.531ZM252.262 251V231.879H254.859L254.938 234.438H254.996C255.517 233.591 256.194 232.875 257.027 232.289C257.874 231.69 258.883 231.391 260.055 231.391C260.315 231.391 260.602 231.417 260.914 231.469C261.227 231.521 261.448 231.573 261.578 231.625V234.262C261.331 234.21 261.057 234.171 260.758 234.145C260.471 234.105 260.159 234.086 259.82 234.086C258.779 234.086 257.835 234.392 256.988 235.004C256.155 235.616 255.517 236.404 255.074 237.367V251H252.262ZM262.77 241.742V241.117C262.77 238.227 263.564 235.883 265.152 234.086C266.754 232.289 268.883 231.391 271.539 231.391C274.208 231.391 276.337 232.289 277.926 234.086C279.514 235.883 280.309 238.227 280.309 241.117V241.742C280.309 244.646 279.514 246.996 277.926 248.793C276.337 250.59 274.208 251.488 271.539 251.488C268.87 251.488 266.741 250.59 265.152 248.793C263.564 246.996 262.77 244.646 262.77 241.742ZM265.641 241.137V241.742C265.641 243.839 266.135 245.583 267.125 246.977C268.128 248.37 269.592 249.066 271.52 249.066C273.473 249.066 274.944 248.37 275.934 246.977C276.936 245.583 277.438 243.832 277.438 241.723V241.137C277.438 239.027 276.936 237.283 275.934 235.902C274.944 234.509 273.473 233.812 271.52 233.812C269.592 233.812 268.128 234.509 267.125 235.902C266.135 237.283 265.641 239.027 265.641 241.137ZM283.043 241.742V241.117C283.043 238.331 283.753 236.033 285.172 234.223C286.604 232.4 288.518 231.488 290.914 231.488C292.294 231.488 293.466 231.729 294.43 232.211C295.393 232.68 296.155 233.311 296.715 234.105V221.82H299.527V251H296.93L296.852 248.363H296.793C296.272 249.197 295.504 249.913 294.488 250.512C293.473 251.098 292.281 251.391 290.914 251.391C288.479 251.391 286.559 250.479 285.152 248.656C283.746 246.833 283.043 244.529 283.043 241.742ZM285.914 241.742C285.914 243.826 286.363 245.557 287.262 246.938C288.173 248.305 289.586 248.988 291.5 248.988C292.776 248.988 293.863 248.637 294.762 247.934C295.673 247.217 296.324 246.41 296.715 245.512V237.23C296.324 236.332 295.673 235.557 294.762 234.906C293.863 234.242 292.776 233.91 291.5 233.91C289.573 233.91 288.16 234.594 287.262 235.961C286.363 237.328 285.914 239.047 285.914 241.117V241.742ZM304.527 244.379V231.879H307.34V244.418C307.34 246.085 307.704 247.257 308.434 247.934C309.163 248.611 310.191 248.949 311.52 248.949C312.652 248.949 313.648 248.63 314.508 247.992C315.38 247.341 316.07 246.508 316.578 245.492V231.879H319.41V251H316.832L316.715 248.324H316.656C315.979 249.301 315.126 250.056 314.098 250.59C313.082 251.124 311.943 251.391 310.68 251.391C308.792 251.391 307.294 250.857 306.188 249.789C305.081 248.708 304.527 246.905 304.527 244.379ZM324.566 251V221.82H327.379V240.668L335.621 231.879H338.941L327.379 244.086V251H324.566ZM336.539 251L329.02 240.648L330.836 238.676L339.82 251H336.539ZM339.605 234.203V231.879H350.23V234.203H339.605ZM343.004 246V233.109V232.719V225.785H345.816V246C345.816 247.198 346.005 247.999 346.383 248.402C346.773 248.806 347.379 249.008 348.199 249.008C348.525 249.008 348.844 248.975 349.156 248.91C349.482 248.845 349.801 248.747 350.113 248.617V251.039C349.827 251.156 349.456 251.26 349 251.352C348.557 251.443 348.069 251.488 347.535 251.488C346.142 251.488 345.035 251.072 344.215 250.238C343.408 249.405 343.004 247.992 343.004 246ZM352.262 241.742V241.117C352.262 238.227 353.023 235.883 354.547 234.086C356.083 232.289 358.108 231.391 360.621 231.391C363.147 231.391 365.081 232.224 366.422 233.891C367.763 235.557 368.434 237.868 368.434 240.824V241.957H353.902V239.633H365.602V239.359C365.602 237.875 365.204 236.579 364.41 235.473C363.629 234.353 362.392 233.793 360.699 233.793C358.837 233.793 357.438 234.483 356.5 235.863C355.562 237.23 355.094 238.982 355.094 241.117V241.742C355.094 243.878 355.589 245.635 356.578 247.016C357.581 248.396 359.059 249.086 361.012 249.086C362.288 249.086 363.375 248.826 364.273 248.305C365.185 247.771 365.908 247.107 366.441 246.312L368.277 247.895C367.717 248.793 366.826 249.62 365.602 250.375C364.391 251.117 362.867 251.488 361.031 251.488C358.219 251.488 356.051 250.596 354.527 248.812C353.017 247.016 352.262 244.659 352.262 241.742ZM372.262 251V231.879H374.859L374.938 234.438H374.996C375.517 233.591 376.194 232.875 377.027 232.289C377.874 231.69 378.883 231.391 380.055 231.391C380.315 231.391 380.602 231.417 380.914 231.469C381.227 231.521 381.448 231.573 381.578 231.625V234.262C381.331 234.21 381.057 234.171 380.758 234.145C380.471 234.105 380.159 234.086 379.82 234.086C378.779 234.086 377.835 234.392 376.988 235.004C376.155 235.616 375.517 236.404 375.074 237.367V251H372.262ZM205.289 288.742V288.117C205.289 285.227 206.051 282.883 207.574 281.086C209.111 279.289 211.135 278.391 213.648 278.391C216.174 278.391 218.108 279.224 219.449 280.891C220.79 282.557 221.461 284.868 221.461 287.824V288.957H206.93V286.633H218.629V286.359C218.629 284.875 218.232 283.579 217.438 282.473C216.656 281.353 215.419 280.793 213.727 280.793C211.865 280.793 210.465 281.483 209.527 282.863C208.59 284.23 208.121 285.982 208.121 288.117V288.742C208.121 290.878 208.616 292.635 209.605 294.016C210.608 295.396 212.086 296.086 214.039 296.086C215.315 296.086 216.402 295.826 217.301 295.305C218.212 294.771 218.935 294.107 219.469 293.312L221.305 294.895C220.745 295.793 219.853 296.62 218.629 297.375C217.418 298.117 215.895 298.488 214.059 298.488C211.246 298.488 209.078 297.596 207.555 295.812C206.044 294.016 205.289 291.659 205.289 288.742ZM225.289 298V278.879H227.887L227.965 281.438H228.023C228.544 280.591 229.221 279.875 230.055 279.289C230.901 278.69 231.91 278.391 233.082 278.391C233.342 278.391 233.629 278.417 233.941 278.469C234.254 278.521 234.475 278.573 234.605 278.625V281.262C234.358 281.21 234.085 281.171 233.785 281.145C233.499 281.105 233.186 281.086 232.848 281.086C231.806 281.086 230.862 281.392 230.016 282.004C229.182 282.616 228.544 283.404 228.102 284.367V298H225.289ZM243.023 278.879H245.855L250.738 292.297C250.921 292.805 251.083 293.286 251.227 293.742C251.37 294.185 251.474 294.523 251.539 294.758H251.637C251.702 294.523 251.806 294.185 251.949 293.742C252.092 293.286 252.255 292.805 252.438 292.297L257.34 278.879H260.113L252.789 298H250.348L243.023 278.879ZM261.305 292.492C261.305 290.591 262.047 289.094 263.531 288C265.016 286.906 266.949 286.359 269.332 286.359H273.805V284.719C273.805 283.482 273.479 282.518 272.828 281.828C272.19 281.125 271.116 280.773 269.605 280.773C268.108 280.773 266.995 281.066 266.266 281.652C265.549 282.238 265.191 283.007 265.191 283.957V284.25H262.379V283.84C262.379 282.355 263.03 281.079 264.332 280.012C265.634 278.931 267.411 278.391 269.664 278.391C271.865 278.391 273.57 278.898 274.781 279.914C276.005 280.917 276.617 282.518 276.617 284.719V293.312C276.617 294.159 276.676 294.96 276.793 295.715C276.91 296.47 277.092 297.128 277.34 297.688V298H274.664C274.469 297.661 274.299 297.232 274.156 296.711C274.013 296.19 273.915 295.669 273.863 295.148C273.421 295.969 272.678 296.704 271.637 297.355C270.608 297.993 269.286 298.312 267.672 298.312C265.81 298.312 264.28 297.818 263.082 296.828C261.897 295.826 261.305 294.38 261.305 292.492ZM264.117 292.355C264.117 293.514 264.462 294.406 265.152 295.031C265.842 295.643 266.865 295.949 268.219 295.949C269.625 295.949 270.908 295.467 272.066 294.504C273.225 293.54 273.805 292.486 273.805 291.34V288.508H269.723C267.848 288.508 266.441 288.853 265.504 289.543C264.579 290.233 264.117 291.171 264.117 292.355ZM281.812 298V268.82H284.625V298H281.812ZM289.449 303.918L291.07 301.73C291.643 302.29 292.424 302.798 293.414 303.254C294.404 303.723 295.549 303.957 296.852 303.957C298.466 303.957 299.781 303.43 300.797 302.375C301.812 301.32 302.32 299.699 302.32 297.512V295.539C301.734 296.359 300.947 297.03 299.957 297.551C298.98 298.059 297.796 298.312 296.402 298.312C294.02 298.312 292.132 297.414 290.738 295.617C289.345 293.82 288.648 291.529 288.648 288.742V288.117C288.648 285.331 289.345 283.033 290.738 281.223C292.132 279.4 294.046 278.488 296.48 278.488C297.809 278.488 298.993 278.768 300.035 279.328C301.09 279.888 301.878 280.578 302.398 281.398H302.457L302.535 278.879H305.133V297.512C305.133 300.428 304.378 302.648 302.867 304.172C301.357 305.695 299.339 306.457 296.812 306.457C295.302 306.457 293.909 306.216 292.633 305.734C291.37 305.253 290.309 304.647 289.449 303.918ZM291.52 288.742C291.52 290.826 291.969 292.538 292.867 293.879C293.766 295.22 295.178 295.891 297.105 295.891C298.382 295.891 299.469 295.546 300.367 294.855C301.279 294.165 301.93 293.365 302.32 292.453V284.328C301.93 283.43 301.279 282.635 300.367 281.945C299.469 281.255 298.382 280.91 297.105 280.91C295.178 280.91 293.766 281.594 292.867 282.961C291.969 284.328 291.52 286.047 291.52 288.117V288.742ZM307.789 281.203V278.879H318.414V281.203H307.789ZM311.188 293V280.109V279.719V272.785H314V293C314 294.198 314.189 294.999 314.566 295.402C314.957 295.806 315.562 296.008 316.383 296.008C316.708 296.008 317.027 295.975 317.34 295.91C317.665 295.845 317.984 295.747 318.297 295.617V298.039C318.01 298.156 317.639 298.26 317.184 298.352C316.741 298.443 316.253 298.488 315.719 298.488C314.326 298.488 313.219 298.072 312.398 297.238C311.591 296.405 311.188 294.992 311.188 293Z" fill="black"/>
</svg>
